<?xml version="1.0" encoding="UTF-8" standalone="no"?>
<!DOCTYPE svg PUBLIC "-//W3C//DTD SVG 1.1//EN" "http://www.w3.org/Graphics/SVG/1.1/DTD/svg11.dtd">
<svg xmlns="http://www.w3.org/2000/svg" version="1.1" viewBox="0.00 0.00 1024.00 1024.00">
<g stroke-width="2.00" fill="none" stroke-linecap="butt">
<path stroke="#876552" vector-effect="non-scaling-stroke" d="
  M 258.53 975.81
  L 384.06 975.88"
/>
<path stroke="#93745f" vector-effect="non-scaling-stroke" d="
  M 384.06 975.88
  L 569.71 975.91"
/>
<path stroke="#876552" vector-effect="non-scaling-stroke" d="
  M 569.71 975.91
  L 768.54 975.90"
/>
<path stroke="#77523e" vector-effect="non-scaling-stroke" d="
  M 768.54 975.90
  Q 808.27 976.40 821.24 975.78
  Q 860.44 973.91 894.39 954.69
  C 938.92 929.48 967.44 885.01 974.33 835.01
  Q 975.70 825.08 975.67 803.43
  Q 975.39 579.21 975.57 219.55
  Q 975.58 199.11 974.20 189.04
  Q 970.16 159.69 956.42 133.61
  Q 933.11 89.37 888.34 66.15
  Q 882.00 62.86 877.27 61.02"
/>
<path stroke="#876552" vector-effect="non-scaling-stroke" d="
  M 877.27 61.02
  Q 857.01 52.76 835.54 49.80
  Q 825.54 48.42 806.90 48.42
  Q 749.18 48.42 691.46 48.53"
/>
<path stroke="#93745f" vector-effect="non-scaling-stroke" d="
  M 691.46 48.53
  L 370.04 48.55"
/>
<path stroke="#876552" vector-effect="non-scaling-stroke" d="
  M 370.04 48.55
  L 278.47 48.49"
/>
<path stroke="#77523e" vector-effect="non-scaling-stroke" d="
  M 278.47 48.49
  Q 247.37 48.24 216.29 48.44
  Q 196.83 48.57 186.80 50.06
  C 115.71 60.63 61.45 114.21 50.26 185.24
  C 49.53 189.82 49.32 194.61 48.69 199.25
  Q 48.22 202.70 48.23 209.77
  Q 48.35 347.49 48.21 811.74
  C 48.19 900.72 114.59 971.40 203.26 975.95
  Q 215.63 976.58 258.53 975.81"
/>
<path stroke="#c79847" vector-effect="non-scaling-stroke" d="
  M 278.47 48.49
  Q 275.69 48.96 273.88 50.08
  A 1.37 1.37 0.0 0 0 273.34 51.75
  L 274.45 54.51
  A 2.31 2.30 -33.6 0 1 273.94 57.00
  Q 272.40 58.55 269.16 58.74
  Q 262.89 59.10 255.41 60.34
  Q 255.33 60.36 255.29 60.37
  Q 255.25 60.37 255.29 60.37
  L 271.46 60.46"
/>
<path stroke="#77523e" vector-effect="non-scaling-stroke" d="
  M 271.46 60.46
  Q 242.18 60.69 212.89 60.73
  Q 195.81 60.74 187.68 61.98
  C 122.54 71.85 71.13 122.82 61.70 188.06
  Q 60.28 197.85 60.31 227.02
  Q 60.56 541.45 60.39 790.06
  Q 60.37 824.42 61.24 831.90
  C 69.13 899.74 121.96 953.18 189.05 962.46
  Q 197.50 963.63 213.51 963.62
  Q 228.24 963.60 242.96 963.76"
/>
<path stroke="#c79847" vector-effect="non-scaling-stroke" d="
  M 242.96 963.76
  L 236.67 964.10
  A 0.43 0.42 83.0 0 0 236.28 964.61
  C 237.44 970.30 240.96 972.77 245.74 975.42
  A 1.97 1.96 59.2 0 0 246.68 975.66
  L 258.53 975.81"
/>
<path stroke="#77523e" vector-effect="non-scaling-stroke" d="
  M 869.89 71.07
  C 926.22 93.51 963.74 148.48 963.64 209.53
  Q 963.22 464.96 963.66 806.76
  Q 963.68 821.60 963.22 826.75
  Q 958.76 876.44 926.65 912.94
  Q 894.48 949.51 846.71 960.29
  Q 831.62 963.70 819.25 963.62
  Q 795.36 963.48 771.45 963.73"
/>
<path stroke="#876552" vector-effect="non-scaling-stroke" d="
  M 771.45 963.73
  L 603.28 963.75"
/>
<path stroke="#93745f" vector-effect="non-scaling-stroke" d="
  M 603.28 963.75
  L 372.75 963.80"
/>
<path stroke="#876552" vector-effect="non-scaling-stroke" d="
  M 372.75 963.80
  L 242.96 963.76"
/>
<path stroke="#876552" vector-effect="non-scaling-stroke" d="
  M 370.80 60.51
  L 271.46 60.46"
/>
<path stroke="#e3bb68" vector-effect="non-scaling-stroke" d="
  M 603.28 963.75
  C 606.05 964.38 614.40 966.58 613.95 970.68
  C 613.60 973.76 607.98 974.40 605.54 974.57
  Q 587.65 975.80 569.71 975.91"
/>
<path stroke="#e3bb68" vector-effect="non-scaling-stroke" d="
  M 384.06 975.88
  Q 373.25 975.28 369.61 974.23
  C 365.69 973.09 360.33 969.85 364.31 965.15
  A 2.99 2.97 -71.0 0 1 366.44 964.10
  L 372.75 963.80"
/>
<path stroke="#e3bb68" vector-effect="non-scaling-stroke" d="
  M 691.46 48.53
  L 694.64 48.82
  A 0.14 0.14 0.0 0 1 694.69 49.09
  C 693.10 49.84 690.18 49.97 689.34 49.97
  Q 677.58 50.00 669.35 50.93
  Q 666.09 51.29 664.25 51.81
  A 0.24 0.24 0.0 0 0 664.16 52.22
  Q 664.22 52.27 664.29 52.33
  A 0.76 0.75 -48.7 0 1 664.35 53.33
  Q 662.84 55.22 663.01 57.97
  A 0.45 0.45 0.0 0 0 663.41 58.39
  L 674.87 59.48
  A 0.07 0.06 -85.9 0 1 674.93 59.56
  L 674.90 59.78
  A 0.31 0.31 0.0 0 1 674.60 60.08
  L 661.28 60.59"
/>
<path stroke="#93745f" vector-effect="non-scaling-stroke" d="
  M 661.28 60.59
  L 370.80 60.51"
/>
<path stroke="#e3bb68" vector-effect="non-scaling-stroke" d="
  M 370.80 60.51
  Q 356.83 59.94 342.82 60.20
  Q 341.50 60.22 342.80 60.07
  Q 350.42 59.14 357.42 59.08
  A 1.01 1.01 0.0 0 0 358.41 57.91
  Q 357.98 55.03 356.37 52.25
  A 1.99 1.98 76.0 0 0 354.72 51.25
  Q 353.05 51.18 350.28 49.78
  A 0.37 0.36 57.6 0 1 350.43 49.09
  L 370.04 48.55"
/>
<path stroke="#c79847" vector-effect="non-scaling-stroke" d="
  M 877.27 61.02
  L 869.89 71.07"
/>
<path stroke="#876552" vector-effect="non-scaling-stroke" d="
  M 869.89 71.07
  Q 849.91 62.96 828.63 61.05
  Q 821.68 60.42 810.87 60.62
  C 796.06 60.89 781.42 60.45 766.41 60.46
  Q 713.85 60.50 661.28 60.59"
/>
<path stroke="#c79847" vector-effect="non-scaling-stroke" d="
  M 768.54 975.90
  L 780.69 974.48
  A 0.59 0.59 0.0 0 0 781.21 973.84
  L 780.35 964.63
  A 0.63 0.63 0.0 0 0 779.76 964.06
  L 771.45 963.73"
/>
<path stroke="#876552" vector-effect="non-scaling-stroke" d="
  M 345.74 259.83
  A 0.31 0.31 0.0 0 0 346.05 259.52
  L 346.05 208.86
  A 0.31 0.31 0.0 0 1 346.63 208.70
  L 371.62 250.13
  A 0.31 0.31 0.0 0 0 371.89 250.28
  L 381.64 250.28
  A 0.31 0.31 0.0 0 0 381.91 250.13
  L 407.60 206.57
  A 0.31 0.31 0.0 0 1 408.18 206.73
  L 408.18 259.51
  A 0.31 0.31 0.0 0 0 408.49 259.82
  L 429.62 259.82
  A 0.31 0.31 0.0 0 0 429.93 259.51
  L 429.93 168.05
  A 0.31 0.31 0.0 0 0 429.62 167.74
  L 409.46 167.74
  A 0.31 0.31 0.0 0 0 409.19 167.89
  L 377.36 221.86
  A 0.31 0.31 0.0 0 1 376.83 221.87
  L 344.35 168.03
  A 0.31 0.31 0.0 0 0 344.08 167.88
  L 324.62 167.88
  A 0.31 0.31 0.0 0 0 324.31 168.19
  L 324.31 259.52
  A 0.31 0.31 0.0 0 0 324.62 259.83
  L 345.74 259.83"
/>
<path stroke="#93745f" vector-effect="non-scaling-stroke" d="
  M 444.55 259.31
  A 0.32 0.32 0.0 0 0 444.84 259.76
  L 468.05 259.76
  A 0.32 0.32 0.0 0 0 468.35 259.56
  L 475.50 241.36
  A 0.32 0.32 0.0 0 1 475.80 241.16
  L 517.12 241.16
  A 0.32 0.32 0.0 0 1 517.42 241.36
  L 524.79 259.62
  A 0.32 0.32 0.0 0 0 525.09 259.82
  L 548.77 259.82
  A 0.32 0.32 0.0 0 0 549.06 259.37
  L 509.05 168.05
  A 0.32 0.32 0.0 0 0 508.76 167.86
  L 485.37 167.86
  A 0.32 0.32 0.0 0 0 485.08 168.05
  L 444.55 259.31"
/>
<path stroke="#93745f" vector-effect="non-scaling-stroke" d="
  M 586.0503 168.0997
  A 0.32 0.32 0.0 0 0 585.7298 167.7802
  L 562.9898 167.8199
  A 0.32 0.32 0.0 0 0 562.6704 168.1405
  L 562.8297 259.4203
  A 0.32 0.32 0.0 0 0 563.1502 259.7398
  L 585.8902 259.7001
  A 0.32 0.32 0.0 0 0 586.2096 259.3795
  L 586.0503 168.0997"
/>
<path stroke="#876552" vector-effect="non-scaling-stroke" d="
  M 640.30 168.01
  A 0.36 0.36 0.0 0 0 639.97 168.23
  L 600.09 259.32
  A 0.36 0.36 0.0 0 0 600.42 259.82
  L 623.07 259.82
  A 0.36 0.36 0.0 0 0 623.41 259.59
  L 630.68 241.07
  A 0.36 0.36 0.0 0 1 631.02 240.84
  L 671.79 240.84
  A 0.36 0.36 0.0 0 1 672.12 241.07
  L 679.60 259.57
  A 0.36 0.36 0.0 0 0 679.93 259.80
  L 703.30 259.80
  A 0.36 0.36 0.0 0 0 703.63 259.30
  L 663.71 168.23
  A 0.36 0.36 0.0 0 0 663.38 168.01
  L 640.30 168.01"
/>
<path stroke="#86779c" vector-effect="non-scaling-stroke" d="
  M 464.87 378.08
  Q 464.51 379.42 463.12 380.18
  C 454.00 385.12 443.79 391.18 435.90 395.54
  Q 401.17 414.74 348.51 444.79
  Q 343.14 447.85 337.52 451.17"
/>
<path stroke="#547e8a" vector-effect="non-scaling-stroke" d="
  M 337.52 451.17
  Q 325.51 440.79 310.76 439.38
  C 273.75 435.84 247.00 474.21 263.87 507.61
  Q 272.42 524.56 290.74 530.59
  A 1.31 1.26 -4.5 0 1 291.46 531.18
  Q 291.70 531.60 291.49 531.10"
/>
<path stroke="#86779c" vector-effect="non-scaling-stroke" d="
  M 291.49 531.10
  L 291.60 672.69"
/>
<path stroke="#547e8a" vector-effect="non-scaling-stroke" d="
  M 291.60 672.69
  Q 287.00 674.19 285.81 674.77
  C 270.67 682.11 260.38 696.06 258.94 712.83
  C 257.75 726.76 262.21 740.94 272.39 750.62
  C 290.50 767.84 318.39 768.99 337.48 752.20
  Q 337.95 751.78 338.74 751.95"
/>
<path stroke="#86779c" vector-effect="non-scaling-stroke" d="
  M 338.74 751.95
  L 465.14 823.14"
/>
<path stroke="#547e8a" vector-effect="non-scaling-stroke" d="
  M 465.14 823.14
  Q 463.30 836.94 468.42 848.56
  C 478.16 870.66 502.62 881.81 525.95 874.71
  C 541.96 869.83 553.80 857.63 557.71 841.36
  Q 559.85 832.49 558.80 823.12"
/>
<path stroke="#86779c" vector-effect="non-scaling-stroke" d="
  M 558.80 823.12
  L 685.22 752.05"
/>
<path stroke="#547e8a" vector-effect="non-scaling-stroke" d="
  M 685.22 752.05
  Q 685.95 751.89 686.58 752.40
  Q 704.79 767.25 727.21 763.20
  C 748.19 759.40 764.09 741.61 765.15 720.28
  C 765.57 712.00 764.53 703.95 760.84 696.67
  Q 751.65 678.59 732.29 672.53"
/>
<path stroke="#86779c" vector-effect="non-scaling-stroke" d="
  M 732.29 672.53
  L 732.24 531.00"
/>
<path stroke="#547e8a" vector-effect="non-scaling-stroke" d="
  M 732.24 531.00
  Q 744.61 527.00 752.69 518.19
  Q 768.51 500.95 764.48 476.29
  Q 763.88 472.57 761.77 468.12
  A 0.26 0.25 -40.1 0 1 761.80 467.85
  Q 762.01 467.59 761.79 467.62
  A 0.17 0.17 0.0 0 1 761.60 467.53
  Q 750.38 445.00 727.97 440.41
  Q 704.98 435.69 686.96 450.92
  Q 686.70 451.14 686.21 451.01"
/>
<path stroke="#86779c" vector-effect="non-scaling-stroke" d="
  M 686.21 451.01
  L 559.45 379.44"
/>
<path stroke="#547e8a" vector-effect="non-scaling-stroke" d="
  M 559.45 379.44
  Q 559.20 379.10 559.03 378.67
  Q 558.84 378.22 558.88 377.84
  Q 560.60 361.94 553.13 349.43
  C 542.96 332.39 524.20 323.55 504.68 326.64
  Q 492.26 328.61 483.06 335.77
  Q 462.43 351.82 464.87 378.08"
/>
<path stroke="#a4d7dd" vector-effect="non-scaling-stroke" d="
  M 559.45 379.44
  Q 558.86 379.67 558.77 380.27
  Q 556.51 394.59 546.06 405.63"
/>
<path stroke="#547e8a" vector-effect="non-scaling-stroke" d="
  M 546.06 405.63
  Q 542.97 408.79 539.97 410.97
  Q 534.01 415.28 526.33 418.10"
/>
<path stroke="#a4d7dd" vector-effect="non-scaling-stroke" d="
  M 526.33 418.10
  Q 526.19 418.21 525.92 418.20
  A 1.43 0.20 3.4 0 0 525.16 418.26
  Q 511.81 422.25 498.65 418.25
  A 1.41 1.41 0.0 0 0 497.74 418.28
  L 497.23 418.46"
/>
<path stroke="#547e8a" vector-effect="non-scaling-stroke" d="
  M 497.23 418.46
  Q 497.13 417.93 496.74 417.78
  Q 488.43 414.59 481.92 409.32
  Q 479.54 407.39 477.55 405.59"
/>
<path stroke="#a4d7dd" vector-effect="non-scaling-stroke" d="
  M 477.55 405.59
  Q 471.15 398.03 467.45 389.20
  Q 466.55 387.04 466.00 383.69
  Q 465.55 380.93 464.87 378.08"
/>
<path stroke="#a4d7dd" vector-effect="non-scaling-stroke" d="
  M 526.45 539.28
  Q 511.93 537.12 499.78 539.30
  Q 498.16 539.59 497.45 539.02"
/>
<path stroke="#a4d7dd" vector-effect="non-scaling-stroke" d="
  M 686.21 451.01
  Q 686.23 451.28 686.05 451.45
  Q 678.34 458.63 674.46 468.48
  Q 673.62 470.60 671.96 476.43"
/>
<path stroke="#86779c" vector-effect="non-scaling-stroke" d="
  M 671.96 476.43
  L 546.06 405.63"
/>
<path stroke="#86779c" vector-effect="non-scaling-stroke" d="
  M 497.23 418.46
  L 497.45 539.02"
/>
<path stroke="#547e8a" vector-effect="non-scaling-stroke" d="
  M 497.45 539.02
  Q 497.52 539.31 497.25 539.60
  Q 497.07 539.79 496.71 539.88
  Q 485.02 542.63 474.16 550.16
  Q 468.90 553.81 466.20 557.23"
/>
<path stroke="#86779c" vector-effect="non-scaling-stroke" d="
  M 466.20 557.23
  L 352.55 493.18"
/>
<path stroke="#547e8a" vector-effect="non-scaling-stroke" d="
  M 352.55 493.18
  Q 353.39 485.15 352.14 476.45"
/>
<path stroke="#86779c" vector-effect="non-scaling-stroke" d="
  M 477.55 405.59
  L 352.14 476.45"
/>
<path stroke="#a4d7dd" vector-effect="non-scaling-stroke" d="
  M 352.14 476.45
  Q 351.57 476.39 351.46 475.77
  C 349.51 465.58 344.86 458.07 337.52 451.17"
/>
<path stroke="#547e8a" vector-effect="non-scaling-stroke" d="
  M 671.96 476.43
  Q 670.47 484.62 671.64 493.01"
/>
<path stroke="#86779c" vector-effect="non-scaling-stroke" d="
  M 671.64 493.01
  L 558.71 556.77"
/>
<path stroke="#547e8a" vector-effect="non-scaling-stroke" d="
  M 558.71 556.77
  L 558.30 556.76
  A 1.26 1.23 67.4 0 1 557.50 556.42
  C 550.56 549.73 542.41 544.49 533.23 541.48
  Q 529.83 540.37 526.45 539.28"
/>
<path stroke="#86779c" vector-effect="non-scaling-stroke" d="
  M 526.45 539.28
  L 526.33 418.10"
/>
<path stroke="#a4d7dd" vector-effect="non-scaling-stroke" d="
  M 573.40 620.51
  Q 573.19 620.69 573.10 621.02
  Q 569.37 635.45 558.84 645.91"
/>
<path stroke="#547e8a" vector-effect="non-scaling-stroke" d="
  M 558.84 645.91
  Q 555.73 649.19 551.26 652.77
  Q 540.05 661.74 526.39 664.77"
/>
<path stroke="#a4d7dd" vector-effect="non-scaling-stroke" d="
  M 526.39 664.77
  Q 512.33 668.54 498.24 665.14
  Q 497.90 665.06 497.51 665.16"
/>
<path stroke="#547e8a" vector-effect="non-scaling-stroke" d="
  M 497.51 665.16
  L 497.34 664.91
  A 0.54 0.54 0.0 0 0 497.05 664.71
  Q 478.71 660.12 465.23 646.25
  Q 464.85 645.85 464.29 645.95"
/>
<path stroke="#a4d7dd" vector-effect="non-scaling-stroke" d="
  M 464.29 645.95
  Q 464.10 645.02 463.82 644.69
  Q 456.38 636.18 452.13 625.62
  Q 451.61 624.31 451.15 621.83
  A 0.91 0.91 0.0 0 0 450.55 621.14
  L 450.06 620.96"
/>
<path stroke="#a4d7dd" vector-effect="non-scaling-stroke" d="
  M 732.24 531.00
  Q 722.65 534.05 712.97 532.82
  Q 710.09 532.46 703.08 530.65"
/>
<path stroke="#547e8a" vector-effect="non-scaling-stroke" d="
  M 703.08 530.65
  Q 692.38 527.00 684.62 519.07"
/>
<path stroke="#a4d7dd" vector-effect="non-scaling-stroke" d="
  M 684.62 519.07
  Q 681.34 515.29 680.34 513.93
  Q 673.43 504.58 671.64 493.01"
/>
<path stroke="#a4d7dd" vector-effect="non-scaling-stroke" d="
  M 466.20 557.23
  Q 455.19 567.50 451.36 581.37
  Q 451.27 581.69 450.68 582.06"
/>
<path stroke="#86779c" vector-effect="non-scaling-stroke" d="
  M 450.68 582.06
  L 339.37 519.21"
/>
<path stroke="#a4d7dd" vector-effect="non-scaling-stroke" d="
  M 352.55 493.18
  Q 349.76 508.11 339.67 518.52
  A 0.92 0.90 74.7 0 0 339.43 518.95
  Q 339.40 519.07 339.37 519.21"
/>
<path stroke="#547e8a" vector-effect="non-scaling-stroke" d="
  M 339.37 519.21
  Q 339.24 519.21 339.11 519.24
  A 0.92 0.87 -71.2 0 0 338.67 519.47
  Q 330.92 526.91 320.89 530.86"
/>
<path stroke="#a4d7dd" vector-effect="non-scaling-stroke" d="
  M 320.89 530.86
  Q 306.37 535.44 291.49 531.10"
/>
<path stroke="#86779c" vector-effect="non-scaling-stroke" d="
  M 684.62 519.07
  L 573.00 582.34"
/>
<path stroke="#a4d7dd" vector-effect="non-scaling-stroke" d="
  M 573.00 582.34
  Q 569.52 568.30 558.97 558.52
  Q 558.41 557.99 558.71 556.77"
/>
<path stroke="#86779c" vector-effect="non-scaling-stroke" d="
  M 497.51 665.16
  L 497.36 785.13"
/>
<path stroke="#547e8a" vector-effect="non-scaling-stroke" d="
  M 497.36 785.13
  Q 493.88 786.39 489.86 788.35
  Q 483.09 791.64 478.70 797.08"
/>
<path stroke="#86779c" vector-effect="non-scaling-stroke" d="
  M 478.70 797.08
  L 352.25 726.06"
/>
<path stroke="#547e8a" vector-effect="non-scaling-stroke" d="
  M 352.25 726.06
  Q 353.24 717.69 352.63 709.19"
/>
<path stroke="#86779c" vector-effect="non-scaling-stroke" d="
  M 464.29 645.95
  L 352.63 709.19"
/>
<path stroke="#a4d7dd" vector-effect="non-scaling-stroke" d="
  M 352.63 709.19
  Q 351.97 709.01 351.86 708.36
  Q 349.29 693.98 338.61 683.68"
/>
<path stroke="#547e8a" vector-effect="non-scaling-stroke" d="
  M 450.68 582.06
  Q 450.80 582.55 450.74 582.75
  Q 445.29 601.28 450.22 620.00
  Q 450.34 620.48 450.06 620.96"
/>
<path stroke="#86779c" vector-effect="non-scaling-stroke" d="
  M 450.06 620.96
  L 338.61 683.68"
/>
<path stroke="#547e8a" vector-effect="non-scaling-stroke" d="
  M 338.61 683.68
  Q 331.60 676.07 321.00 672.62"
/>
<path stroke="#86779c" vector-effect="non-scaling-stroke" d="
  M 321.00 672.62
  L 320.89 530.86"
/>
<path stroke="#547e8a" vector-effect="non-scaling-stroke" d="
  M 671.65 709.37
  Q 670.54 717.81 671.83 725.92"
/>
<path stroke="#86779c" vector-effect="non-scaling-stroke" d="
  M 671.83 725.92
  L 545.45 796.96"
/>
<path stroke="#547e8a" vector-effect="non-scaling-stroke" d="
  M 545.45 796.96
  Q 537.95 788.86 526.48 785.23"
/>
<path stroke="#86779c" vector-effect="non-scaling-stroke" d="
  M 526.48 785.23
  L 526.39 664.77"
/>
<path stroke="#86779c" vector-effect="non-scaling-stroke" d="
  M 703.08 530.65
  L 703.12 672.64"
/>
<path stroke="#547e8a" vector-effect="non-scaling-stroke" d="
  M 703.12 672.64
  Q 693.08 676.23 685.06 683.67"
/>
<path stroke="#86779c" vector-effect="non-scaling-stroke" d="
  M 685.06 683.67
  L 573.40 620.51"
/>
<path stroke="#547e8a" vector-effect="non-scaling-stroke" d="
  M 573.40 620.51
  Q 578.05 604.15 574.51 587.50
  Q 574.08 585.46 573.00 582.34"
/>
<path stroke="#a4d7dd" vector-effect="non-scaling-stroke" d="
  M 685.06 683.67
  L 684.61 684.70
  A 1.87 1.78 81.7 0 1 684.15 685.35
  Q 681.17 688.02 678.68 691.91
  Q 673.36 700.20 671.65 709.37"
/>
<path stroke="#86779c" vector-effect="non-scaling-stroke" d="
  M 671.65 709.37
  L 558.84 645.91"
/>
<path stroke="#a4d7dd" vector-effect="non-scaling-stroke" d="
  M 526.48 785.23
  Q 512.07 781.33 497.36 785.13"
/>
<path stroke="#a4d7dd" vector-effect="non-scaling-stroke" d="
  M 732.29 672.53
  Q 727.48 671.04 720.00 670.93
  Q 710.07 670.78 703.12 672.64"
/>
<path stroke="#a4d7dd" vector-effect="non-scaling-stroke" d="
  M 321.00 672.62
  Q 321.13 672.30 320.55 672.48
  A 1.11 1.05 -43.4 0 1 319.94 672.48
  Q 305.99 668.59 291.60 672.69"
/>
<path stroke="#a4d7dd" vector-effect="non-scaling-stroke" d="
  M 478.70 797.08
  Q 469.67 806.20 466.25 818.32
  Q 465.57 820.70 465.14 823.14"
/>
<path stroke="#a4d7dd" vector-effect="non-scaling-stroke" d="
  M 352.25 726.06
  Q 351.36 730.92 349.64 735.37
  Q 346.08 744.50 338.98 751.22
  Q 338.67 751.50 338.74 751.95"
/>
<path stroke="#a4d7dd" vector-effect="non-scaling-stroke" d="
  M 558.80 823.12
  L 557.51 816.60
  A 1.19 0.89 36.9 0 0 557.44 816.36
  Q 553.59 805.74 545.45 796.96"
/>
<path stroke="#a4d7dd" vector-effect="non-scaling-stroke" d="
  M 685.22 752.05
  Q 685.23 751.12 685.01 750.91
  Q 676.82 742.96 673.28 732.10
  A 3.20 3.15 35.0 0 1 673.12 731.24
  Q 672.94 728.14 671.83 725.92"
/>
<path stroke="#93745f" vector-effect="non-scaling-stroke" d="
  M 483.26 223.31
  A 0.41 0.41 0.0 0 0 483.64 223.88
  L 509.74 223.97
  A 0.41 0.41 0.0 0 0 510.12 223.41
  L 497.19 190.58
  A 0.41 0.41 0.0 0 0 496.43 190.58
  L 483.26 223.31"
/>
<path stroke="#876552" vector-effect="non-scaling-stroke" d="
  M 638.28 223.34
  A 0.51 0.51 0.0 0 0 638.76 224.04
  L 664.48 223.99
  A 0.51 0.51 0.0 0 0 664.95 223.29
  L 652.04 191.31
  A 0.51 0.51 0.0 0 0 651.09 191.31
  L 638.28 223.34"
/>
</g>
<path fill="#361e49" d="
  M 1024.00 0.00
  L 1024.00 1024.00
  L 0.00 1024.00
  L 0.00 0.00
  L 1024.00 0.00
  Z
  M 258.53 975.81
  L 384.06 975.88
  L 569.71 975.91
  L 768.54 975.90
  Q 808.27 976.40 821.24 975.78
  Q 860.44 973.91 894.39 954.69
  C 938.92 929.48 967.44 885.01 974.33 835.01
  Q 975.70 825.08 975.67 803.43
  Q 975.39 579.21 975.57 219.55
  Q 975.58 199.11 974.20 189.04
  Q 970.16 159.69 956.42 133.61
  Q 933.11 89.37 888.34 66.15
  Q 882.00 62.86 877.27 61.02
  Q 857.01 52.76 835.54 49.80
  Q 825.54 48.42 806.90 48.42
  Q 749.18 48.42 691.46 48.53
  L 370.04 48.55
  L 278.47 48.49
  Q 247.37 48.24 216.29 48.44
  Q 196.83 48.57 186.80 50.06
  C 115.71 60.63 61.45 114.21 50.26 185.24
  C 49.53 189.82 49.32 194.61 48.69 199.25
  Q 48.22 202.70 48.23 209.77
  Q 48.35 347.49 48.21 811.74
  C 48.19 900.72 114.59 971.40 203.26 975.95
  Q 215.63 976.58 258.53 975.81
  Z"
/>
<path fill="#b78533" d="
  M 278.47 48.49
  Q 275.69 48.96 273.88 50.08
  A 1.37 1.37 0.0 0 0 273.34 51.75
  L 274.45 54.51
  A 2.31 2.30 -33.6 0 1 273.94 57.00
  Q 272.40 58.55 269.16 58.74
  Q 262.89 59.10 255.41 60.34
  Q 255.33 60.36 255.29 60.37
  Q 255.25 60.37 255.29 60.37
  L 271.46 60.46
  Q 242.18 60.69 212.89 60.73
  Q 195.81 60.74 187.68 61.98
  C 122.54 71.85 71.13 122.82 61.70 188.06
  Q 60.28 197.85 60.31 227.02
  Q 60.56 541.45 60.39 790.06
  Q 60.37 824.42 61.24 831.90
  C 69.13 899.74 121.96 953.18 189.05 962.46
  Q 197.50 963.63 213.51 963.62
  Q 228.24 963.60 242.96 963.76
  L 236.67 964.10
  A 0.43 0.42 83.0 0 0 236.28 964.61
  C 237.44 970.30 240.96 972.77 245.74 975.42
  A 1.97 1.96 59.2 0 0 246.68 975.66
  L 258.53 975.81
  Q 215.63 976.58 203.26 975.95
  C 114.59 971.40 48.19 900.72 48.21 811.74
  Q 48.35 347.49 48.23 209.77
  Q 48.22 202.70 48.69 199.25
  C 49.32 194.61 49.53 189.82 50.26 185.24
  C 61.45 114.21 115.71 60.63 186.80 50.06
  Q 196.83 48.57 216.29 48.44
  Q 247.37 48.24 278.47 48.49
  Z"
/>
<path fill="#efca75" d="
  M 691.46 48.53
  L 694.64 48.82
  A 0.14 0.14 0.0 0 1 694.69 49.09
  C 693.10 49.84 690.18 49.97 689.34 49.97
  Q 677.58 50.00 669.35 50.93
  Q 666.09 51.29 664.25 51.81
  A 0.24 0.24 0.0 0 0 664.16 52.22
  Q 664.22 52.27 664.29 52.33
  A 0.76 0.75 -48.7 0 1 664.35 53.33
  Q 662.84 55.22 663.01 57.97
  A 0.45 0.45 0.0 0 0 663.41 58.39
  L 674.87 59.48
  A 0.07 0.06 -85.9 0 1 674.93 59.56
  L 674.90 59.78
  A 0.31 0.31 0.0 0 1 674.60 60.08
  L 661.28 60.59
  L 370.80 60.51
  Q 356.83 59.94 342.82 60.20
  Q 341.50 60.22 342.80 60.07
  Q 350.42 59.14 357.42 59.08
  A 1.01 1.01 0.0 0 0 358.41 57.91
  Q 357.98 55.03 356.37 52.25
  A 1.99 1.98 76.0 0 0 354.72 51.25
  Q 353.05 51.18 350.28 49.78
  A 0.37 0.36 57.6 0 1 350.43 49.09
  L 370.04 48.55
  L 691.46 48.53
  Z"
/>
<path fill="#d7ab5b" d="
  M 877.27 61.02
  L 869.89 71.07
  Q 849.91 62.96 828.63 61.05
  Q 821.68 60.42 810.87 60.62
  C 796.06 60.89 781.42 60.45 766.41 60.46
  Q 713.85 60.50 661.28 60.59
  L 674.60 60.08
  A 0.31 0.31 0.0 0 0 674.90 59.78
  L 674.93 59.56
  A 0.07 0.06 -85.9 0 0 674.87 59.48
  L 663.41 58.39
  A 0.45 0.45 0.0 0 1 663.01 57.97
  Q 662.84 55.22 664.35 53.33
  A 0.76 0.75 -48.7 0 0 664.29 52.33
  Q 664.22 52.27 664.16 52.22
  A 0.24 0.24 0.0 0 1 664.25 51.81
  Q 666.09 51.29 669.35 50.93
  Q 677.58 50.00 689.34 49.97
  C 690.18 49.97 693.10 49.84 694.69 49.09
  A 0.14 0.14 0.0 0 0 694.64 48.82
  L 691.46 48.53
  Q 749.18 48.42 806.90 48.42
  Q 825.54 48.42 835.54 49.80
  Q 857.01 52.76 877.27 61.02
  Z"
/>
<path fill="#d7ab5b" d="
  M 370.04 48.55
  L 350.43 49.09
  A 0.37 0.36 57.6 0 0 350.28 49.78
  Q 353.05 51.18 354.72 51.25
  A 1.99 1.98 76.0 0 1 356.37 52.25
  Q 357.98 55.03 358.41 57.91
  A 1.01 1.01 0.0 0 1 357.42 59.08
  Q 350.42 59.14 342.80 60.07
  Q 341.50 60.22 342.82 60.20
  Q 356.83 59.94 370.80 60.51
  L 271.46 60.46
  L 255.29 60.37
  Q 255.25 60.37 255.29 60.37
  Q 255.33 60.36 255.41 60.34
  Q 262.89 59.10 269.16 58.74
  Q 272.40 58.55 273.94 57.00
  A 2.31 2.30 -33.6 0 0 274.45 54.51
  L 273.34 51.75
  A 1.37 1.37 0.0 0 1 273.88 50.08
  Q 275.69 48.96 278.47 48.49
  L 370.04 48.55
  Z"
/>
<path fill="#361e49" d="
  M 661.28 60.59
  Q 713.85 60.50 766.41 60.46
  C 781.42 60.45 796.06 60.89 810.87 60.62
  Q 821.68 60.42 828.63 61.05
  Q 849.91 62.96 869.89 71.07
  C 926.22 93.51 963.74 148.48 963.64 209.53
  Q 963.22 464.96 963.66 806.76
  Q 963.68 821.60 963.22 826.75
  Q 958.76 876.44 926.65 912.94
  Q 894.48 949.51 846.71 960.29
  Q 831.62 963.70 819.25 963.62
  Q 795.36 963.48 771.45 963.73
  L 603.28 963.75
  L 372.75 963.80
  L 242.96 963.76
  Q 228.24 963.60 213.51 963.62
  Q 197.50 963.63 189.05 962.46
  C 121.96 953.18 69.13 899.74 61.24 831.90
  Q 60.37 824.42 60.39 790.06
  Q 60.56 541.45 60.31 227.02
  Q 60.28 197.85 61.70 188.06
  C 71.13 122.82 122.54 71.85 187.68 61.98
  Q 195.81 60.74 212.89 60.73
  Q 242.18 60.69 271.46 60.46
  L 370.80 60.51
  L 661.28 60.59
  Z
  M 345.74 259.83
  A 0.31 0.31 0.0 0 0 346.05 259.52
  L 346.05 208.86
  A 0.31 0.31 0.0 0 1 346.63 208.70
  L 371.62 250.13
  A 0.31 0.31 0.0 0 0 371.89 250.28
  L 381.64 250.28
  A 0.31 0.31 0.0 0 0 381.91 250.13
  L 407.60 206.57
  A 0.31 0.31 0.0 0 1 408.18 206.73
  L 408.18 259.51
  A 0.31 0.31 0.0 0 0 408.49 259.82
  L 429.62 259.82
  A 0.31 0.31 0.0 0 0 429.93 259.51
  L 429.93 168.05
  A 0.31 0.31 0.0 0 0 429.62 167.74
  L 409.46 167.74
  A 0.31 0.31 0.0 0 0 409.19 167.89
  L 377.36 221.86
  A 0.31 0.31 0.0 0 1 376.83 221.87
  L 344.35 168.03
  A 0.31 0.31 0.0 0 0 344.08 167.88
  L 324.62 167.88
  A 0.31 0.31 0.0 0 0 324.31 168.19
  L 324.31 259.52
  A 0.31 0.31 0.0 0 0 324.62 259.83
  L 345.74 259.83
  Z
  M 444.55 259.31
  A 0.32 0.32 0.0 0 0 444.84 259.76
  L 468.05 259.76
  A 0.32 0.32 0.0 0 0 468.35 259.56
  L 475.50 241.36
  A 0.32 0.32 0.0 0 1 475.80 241.16
  L 517.12 241.16
  A 0.32 0.32 0.0 0 1 517.42 241.36
  L 524.79 259.62
  A 0.32 0.32 0.0 0 0 525.09 259.82
  L 548.77 259.82
  A 0.32 0.32 0.0 0 0 549.06 259.37
  L 509.05 168.05
  A 0.32 0.32 0.0 0 0 508.76 167.86
  L 485.37 167.86
  A 0.32 0.32 0.0 0 0 485.08 168.05
  L 444.55 259.31
  Z
  M 586.0503 168.0997
  A 0.32 0.32 0.0 0 0 585.7298 167.7802
  L 562.9898 167.8199
  A 0.32 0.32 0.0 0 0 562.6704 168.1405
  L 562.8297 259.4203
  A 0.32 0.32 0.0 0 0 563.1502 259.7398
  L 585.8902 259.7001
  A 0.32 0.32 0.0 0 0 586.2096 259.3795
  L 586.0503 168.0997
  Z
  M 640.30 168.01
  A 0.36 0.36 0.0 0 0 639.97 168.23
  L 600.09 259.32
  A 0.36 0.36 0.0 0 0 600.42 259.82
  L 623.07 259.82
  A 0.36 0.36 0.0 0 0 623.41 259.59
  L 630.68 241.07
  A 0.36 0.36 0.0 0 1 631.02 240.84
  L 671.79 240.84
  A 0.36 0.36 0.0 0 1 672.12 241.07
  L 679.60 259.57
  A 0.36 0.36 0.0 0 0 679.93 259.80
  L 703.30 259.80
  A 0.36 0.36 0.0 0 0 703.63 259.30
  L 663.71 168.23
  A 0.36 0.36 0.0 0 0 663.38 168.01
  L 640.30 168.01
  Z
  M 464.87 378.08
  Q 464.51 379.42 463.12 380.18
  C 454.00 385.12 443.79 391.18 435.90 395.54
  Q 401.17 414.74 348.51 444.79
  Q 343.14 447.85 337.52 451.17
  Q 325.51 440.79 310.76 439.38
  C 273.75 435.84 247.00 474.21 263.87 507.61
  Q 272.42 524.56 290.74 530.59
  A 1.31 1.26 -4.5 0 1 291.46 531.18
  Q 291.70 531.60 291.49 531.10
  L 291.60 672.69
  Q 287.00 674.19 285.81 674.77
  C 270.67 682.11 260.38 696.06 258.94 712.83
  C 257.75 726.76 262.21 740.94 272.39 750.62
  C 290.50 767.84 318.39 768.99 337.48 752.20
  Q 337.95 751.78 338.74 751.95
  L 465.14 823.14
  Q 463.30 836.94 468.42 848.56
  C 478.16 870.66 502.62 881.81 525.95 874.71
  C 541.96 869.83 553.80 857.63 557.71 841.36
  Q 559.85 832.49 558.80 823.12
  L 685.22 752.05
  Q 685.95 751.89 686.58 752.40
  Q 704.79 767.25 727.21 763.20
  C 748.19 759.40 764.09 741.61 765.15 720.28
  C 765.57 712.00 764.53 703.95 760.84 696.67
  Q 751.65 678.59 732.29 672.53
  L 732.24 531.00
  Q 744.61 527.00 752.69 518.19
  Q 768.51 500.95 764.48 476.29
  Q 763.88 472.57 761.77 468.12
  A 0.26 0.25 -40.1 0 1 761.80 467.85
  Q 762.01 467.59 761.79 467.62
  A 0.17 0.17 0.0 0 1 761.60 467.53
  Q 750.38 445.00 727.97 440.41
  Q 704.98 435.69 686.96 450.92
  Q 686.70 451.14 686.21 451.01
  L 559.45 379.44
  Q 559.20 379.10 559.03 378.67
  Q 558.84 378.22 558.88 377.84
  Q 560.60 361.94 553.13 349.43
  C 542.96 332.39 524.20 323.55 504.68 326.64
  Q 492.26 328.61 483.06 335.77
  Q 462.43 351.82 464.87 378.08
  Z"
/>
<path fill="#b78533" d="
  M 768.54 975.90
  L 780.69 974.48
  A 0.59 0.59 0.0 0 0 781.21 973.84
  L 780.35 964.63
  A 0.63 0.63 0.0 0 0 779.76 964.06
  L 771.45 963.73
  Q 795.36 963.48 819.25 963.62
  Q 831.62 963.70 846.71 960.29
  Q 894.48 949.51 926.65 912.94
  Q 958.76 876.44 963.22 826.75
  Q 963.68 821.60 963.66 806.76
  Q 963.22 464.96 963.64 209.53
  C 963.74 148.48 926.22 93.51 869.89 71.07
  L 877.27 61.02
  Q 882.00 62.86 888.34 66.15
  Q 933.11 89.37 956.42 133.61
  Q 970.16 159.69 974.20 189.04
  Q 975.58 199.11 975.57 219.55
  Q 975.39 579.21 975.67 803.43
  Q 975.70 825.08 974.33 835.01
  C 967.44 885.01 938.92 929.48 894.39 954.69
  Q 860.44 973.91 821.24 975.78
  Q 808.27 976.40 768.54 975.90
  Z"
/>
<path fill="#d7ab5b" d="
  M 345.74 259.83
  L 324.62 259.83
  A 0.31 0.31 0.0 0 1 324.31 259.52
  L 324.31 168.19
  A 0.31 0.31 0.0 0 1 324.62 167.88
  L 344.08 167.88
  A 0.31 0.31 0.0 0 1 344.35 168.03
  L 376.83 221.87
  A 0.31 0.31 0.0 0 0 377.36 221.86
  L 409.19 167.89
  A 0.31 0.31 0.0 0 1 409.46 167.74
  L 429.62 167.74
  A 0.31 0.31 0.0 0 1 429.93 168.05
  L 429.93 259.51
  A 0.31 0.31 0.0 0 1 429.62 259.82
  L 408.49 259.82
  A 0.31 0.31 0.0 0 1 408.18 259.51
  L 408.18 206.73
  A 0.31 0.31 0.0 0 0 407.60 206.57
  L 381.91 250.13
  A 0.31 0.31 0.0 0 1 381.64 250.28
  L 371.89 250.28
  A 0.31 0.31 0.0 0 1 371.62 250.13
  L 346.63 208.70
  A 0.31 0.31 0.0 0 0 346.05 208.86
  L 346.05 259.52
  A 0.31 0.31 0.0 0 1 345.74 259.83
  Z"
/>
<path fill="#efca75" d="
  M 444.55 259.31
  L 485.08 168.05
  A 0.32 0.32 0.0 0 1 485.37 167.86
  L 508.76 167.86
  A 0.32 0.32 0.0 0 1 509.05 168.05
  L 549.06 259.37
  A 0.32 0.32 0.0 0 1 548.77 259.82
  L 525.09 259.82
  A 0.32 0.32 0.0 0 1 524.79 259.62
  L 517.42 241.36
  A 0.32 0.32 0.0 0 0 517.12 241.16
  L 475.80 241.16
  A 0.32 0.32 0.0 0 0 475.50 241.36
  L 468.35 259.56
  A 0.32 0.32 0.0 0 1 468.05 259.76
  L 444.84 259.76
  A 0.32 0.32 0.0 0 1 444.55 259.31
  Z
  M 483.26 223.31
  A 0.41 0.41 0.0 0 0 483.64 223.88
  L 509.74 223.97
  A 0.41 0.41 0.0 0 0 510.12 223.41
  L 497.19 190.58
  A 0.41 0.41 0.0 0 0 496.43 190.58
  L 483.26 223.31
  Z"
/>
<rect fill="#efca75" x="-11.69" y="-45.96" transform="translate(574.44,213.76) rotate(-0.1)" width="23.38" height="91.92" rx="0.32"/>
<path fill="#d7ab5b" d="
  M 640.30 168.01
  L 663.38 168.01
  A 0.36 0.36 0.0 0 1 663.71 168.23
  L 703.63 259.30
  A 0.36 0.36 0.0 0 1 703.30 259.80
  L 679.93 259.80
  A 0.36 0.36 0.0 0 1 679.60 259.57
  L 672.12 241.07
  A 0.36 0.36 0.0 0 0 671.79 240.84
  L 631.02 240.84
  A 0.36 0.36 0.0 0 0 630.68 241.07
  L 623.41 259.59
  A 0.36 0.36 0.0 0 1 623.07 259.82
  L 600.42 259.82
  A 0.36 0.36 0.0 0 1 600.09 259.32
  L 639.97 168.23
  A 0.36 0.36 0.0 0 1 640.30 168.01
  Z
  M 638.28 223.34
  A 0.51 0.51 0.0 0 0 638.76 224.04
  L 664.48 223.99
  A 0.51 0.51 0.0 0 0 664.95 223.29
  L 652.04 191.31
  A 0.51 0.51 0.0 0 0 651.09 191.31
  L 638.28 223.34
  Z"
/>
<path fill="#361e49" d="
  M 483.26 223.31
  L 496.43 190.58
  A 0.41 0.41 0.0 0 1 497.19 190.58
  L 510.12 223.41
  A 0.41 0.41 0.0 0 1 509.74 223.97
  L 483.64 223.88
  A 0.41 0.41 0.0 0 1 483.26 223.31
  Z"
/>
<path fill="#361e49" d="
  M 638.28 223.34
  L 651.09 191.31
  A 0.51 0.51 0.0 0 1 652.04 191.31
  L 664.95 223.29
  A 0.51 0.51 0.0 0 1 664.48 223.99
  L 638.76 224.04
  A 0.51 0.51 0.0 0 1 638.28 223.34
  Z"
/>
<path fill="#72deca" d="
  M 559.45 379.44
  Q 558.86 379.67 558.77 380.27
  Q 556.51 394.59 546.06 405.63
  Q 542.97 408.79 539.97 410.97
  Q 534.01 415.28 526.33 418.10
  Q 526.19 418.21 525.92 418.20
  A 1.43 0.20 3.4 0 0 525.16 418.26
  Q 511.81 422.25 498.65 418.25
  A 1.41 1.41 0.0 0 0 497.74 418.28
  L 497.23 418.46
  Q 497.13 417.93 496.74 417.78
  Q 488.43 414.59 481.92 409.32
  Q 479.54 407.39 477.55 405.59
  Q 471.15 398.03 467.45 389.20
  Q 466.55 387.04 466.00 383.69
  Q 465.55 380.93 464.87 378.08
  Q 462.43 351.82 483.06 335.77
  Q 492.26 328.61 504.68 326.64
  C 524.20 323.55 542.96 332.39 553.13 349.43
  Q 560.60 361.94 558.88 377.84
  Q 558.84 378.22 559.03 378.67
  Q 559.20 379.10 559.45 379.44
  Z"
/>
<path fill="#d5cfef" d="
  M 477.55 405.59
  L 352.14 476.45
  Q 351.57 476.39 351.46 475.77
  C 349.51 465.58 344.86 458.07 337.52 451.17
  Q 343.14 447.85 348.51 444.79
  Q 401.17 414.74 435.90 395.54
  C 443.79 391.18 454.00 385.12 463.12 380.18
  Q 464.51 379.42 464.87 378.08
  Q 465.55 380.93 466.00 383.69
  Q 466.55 387.04 467.45 389.20
  Q 471.15 398.03 477.55 405.59
  Z"
/>
<path fill="#d5cfef" d="
  M 559.45 379.44
  L 686.21 451.01
  Q 686.23 451.28 686.05 451.45
  Q 678.34 458.63 674.46 468.48
  Q 673.62 470.60 671.96 476.43
  L 546.06 405.63
  Q 556.51 394.59 558.77 380.27
  Q 558.86 379.67 559.45 379.44
  Z"
/>
<path fill="#361e49" d="
  M 477.55 405.59
  Q 479.54 407.39 481.92 409.32
  Q 488.43 414.59 496.74 417.78
  Q 497.13 417.93 497.23 418.46
  L 497.45 539.02
  Q 497.52 539.31 497.25 539.60
  Q 497.07 539.79 496.71 539.88
  Q 485.02 542.63 474.16 550.16
  Q 468.90 553.81 466.20 557.23
  L 352.55 493.18
  Q 353.39 485.15 352.14 476.45
  L 477.55 405.59
  Z"
/>
<path fill="#361e49" d="
  M 546.06 405.63
  L 671.96 476.43
  Q 670.47 484.62 671.64 493.01
  L 558.71 556.77
  L 558.30 556.76
  A 1.26 1.23 67.4 0 1 557.50 556.42
  C 550.56 549.73 542.41 544.49 533.23 541.48
  Q 529.83 540.37 526.45 539.28
  L 526.33 418.10
  Q 534.01 415.28 539.97 410.97
  Q 542.97 408.79 546.06 405.63
  Z"
/>
<path fill="#d5cfef" d="
  M 526.33 418.10
  L 526.45 539.28
  Q 511.93 537.12 499.78 539.30
  Q 498.16 539.59 497.45 539.02
  L 497.23 418.46
  L 497.74 418.28
  A 1.41 1.41 0.0 0 1 498.65 418.25
  Q 511.81 422.25 525.16 418.26
  A 1.43 0.20 3.4 0 1 525.92 418.20
  Q 526.19 418.21 526.33 418.10
  Z"
/>
<path fill="#72deca" d="
  M 337.52 451.17
  C 344.86 458.07 349.51 465.58 351.46 475.77
  Q 351.57 476.39 352.14 476.45
  Q 353.39 485.15 352.55 493.18
  Q 349.76 508.11 339.67 518.52
  A 0.92 0.90 74.7 0 0 339.43 518.95
  Q 339.40 519.07 339.37 519.21
  Q 339.24 519.21 339.11 519.24
  A 0.92 0.87 -71.2 0 0 338.67 519.47
  Q 330.92 526.91 320.89 530.86
  Q 306.37 535.44 291.49 531.10
  Q 291.70 531.60 291.46 531.18
  A 1.31 1.26 -4.5 0 0 290.74 530.59
  Q 272.42 524.56 263.87 507.61
  C 247.00 474.21 273.75 435.84 310.76 439.38
  Q 325.51 440.79 337.52 451.17
  Z"
/>
<path fill="#72deca" d="
  M 732.24 531.00
  Q 722.65 534.05 712.97 532.82
  Q 710.09 532.46 703.08 530.65
  Q 692.38 527.00 684.62 519.07
  Q 681.34 515.29 680.34 513.93
  Q 673.43 504.58 671.64 493.01
  Q 670.47 484.62 671.96 476.43
  Q 673.62 470.60 674.46 468.48
  Q 678.34 458.63 686.05 451.45
  Q 686.23 451.28 686.21 451.01
  Q 686.70 451.14 686.96 450.92
  Q 704.98 435.69 727.97 440.41
  Q 750.38 445.00 761.60 467.53
  A 0.17 0.17 0.0 0 0 761.79 467.62
  Q 762.01 467.59 761.80 467.85
  A 0.26 0.25 -40.1 0 0 761.77 468.12
  Q 763.88 472.57 764.48 476.29
  Q 768.51 500.95 752.69 518.19
  Q 744.61 527.00 732.24 531.00
  Z"
/>
<path fill="#d5cfef" d="
  M 671.64 493.01
  Q 673.43 504.58 680.34 513.93
  Q 681.34 515.29 684.62 519.07
  L 573.00 582.34
  Q 569.52 568.30 558.97 558.52
  Q 558.41 557.99 558.71 556.77
  L 671.64 493.01
  Z"
/>
<path fill="#d5cfef" d="
  M 352.55 493.18
  L 466.20 557.23
  Q 455.19 567.50 451.36 581.37
  Q 451.27 581.69 450.68 582.06
  L 339.37 519.21
  Q 339.40 519.07 339.43 518.95
  A 0.92 0.90 74.7 0 1 339.67 518.52
  Q 349.76 508.11 352.55 493.18
  Z"
/>
<path fill="#361e49" d="
  M 339.37 519.21
  L 450.68 582.06
  Q 450.80 582.55 450.74 582.75
  Q 445.29 601.28 450.22 620.00
  Q 450.34 620.48 450.06 620.96
  L 338.61 683.68
  Q 331.60 676.07 321.00 672.62
  L 320.89 530.86
  Q 330.92 526.91 338.67 519.47
  A 0.92 0.87 -71.2 0 1 339.11 519.24
  Q 339.24 519.21 339.37 519.21
  Z"
/>
<path fill="#361e49" d="
  M 684.62 519.07
  Q 692.38 527.00 703.08 530.65
  L 703.12 672.64
  Q 693.08 676.23 685.06 683.67
  L 573.40 620.51
  Q 578.05 604.15 574.51 587.50
  Q 574.08 585.46 573.00 582.34
  L 684.62 519.07
  Z"
/>
<path fill="#d5cfef" d="
  M 732.24 531.00
  L 732.29 672.53
  Q 727.48 671.04 720.00 670.93
  Q 710.07 670.78 703.12 672.64
  L 703.08 530.65
  Q 710.09 532.46 712.97 532.82
  Q 722.65 534.05 732.24 531.00
  Z"
/>
<path fill="#d5cfef" d="
  M 320.89 530.86
  L 321.00 672.62
  Q 321.13 672.30 320.55 672.48
  A 1.11 1.05 -43.4 0 1 319.94 672.48
  Q 305.99 668.59 291.60 672.69
  L 291.49 531.10
  Q 306.37 535.44 320.89 530.86
  Z"
/>
<path fill="#72deca" d="
  M 526.45 539.28
  Q 529.83 540.37 533.23 541.48
  C 542.41 544.49 550.56 549.73 557.50 556.42
  A 1.26 1.23 67.4 0 0 558.30 556.76
  L 558.71 556.77
  Q 558.41 557.99 558.97 558.52
  Q 569.52 568.30 573.00 582.34
  Q 574.08 585.46 574.51 587.50
  Q 578.05 604.15 573.40 620.51
  Q 573.19 620.69 573.10 621.02
  Q 569.37 635.45 558.84 645.91
  Q 555.73 649.19 551.26 652.77
  Q 540.05 661.74 526.39 664.77
  Q 512.33 668.54 498.24 665.14
  Q 497.90 665.06 497.51 665.16
  L 497.34 664.91
  A 0.54 0.54 0.0 0 0 497.05 664.71
  Q 478.71 660.12 465.23 646.25
  Q 464.85 645.85 464.29 645.95
  Q 464.10 645.02 463.82 644.69
  Q 456.38 636.18 452.13 625.62
  Q 451.61 624.31 451.15 621.83
  A 0.91 0.91 0.0 0 0 450.55 621.14
  L 450.06 620.96
  Q 450.34 620.48 450.22 620.00
  Q 445.29 601.28 450.74 582.75
  Q 450.80 582.55 450.68 582.06
  Q 451.27 581.69 451.36 581.37
  Q 455.19 567.50 466.20 557.23
  Q 468.90 553.81 474.16 550.16
  Q 485.02 542.63 496.71 539.88
  Q 497.07 539.79 497.25 539.60
  Q 497.52 539.31 497.45 539.02
  Q 498.16 539.59 499.78 539.30
  Q 511.93 537.12 526.45 539.28
  Z"
/>
<path fill="#d5cfef" d="
  M 573.40 620.51
  L 685.06 683.67
  L 684.61 684.70
  A 1.87 1.78 81.7 0 1 684.15 685.35
  Q 681.17 688.02 678.68 691.91
  Q 673.36 700.20 671.65 709.37
  L 558.84 645.91
  Q 569.37 635.45 573.10 621.02
  Q 573.19 620.69 573.40 620.51
  Z"
/>
<path fill="#d5cfef" d="
  M 450.06 620.96
  L 450.55 621.14
  A 0.91 0.91 0.0 0 1 451.15 621.83
  Q 451.61 624.31 452.13 625.62
  Q 456.38 636.18 463.82 644.69
  Q 464.10 645.02 464.29 645.95
  L 352.63 709.19
  Q 351.97 709.01 351.86 708.36
  Q 349.29 693.98 338.61 683.68
  L 450.06 620.96
  Z"
/>
<path fill="#361e49" d="
  M 497.51 665.16
  L 497.36 785.13
  Q 493.88 786.39 489.86 788.35
  Q 483.09 791.64 478.70 797.08
  L 352.25 726.06
  Q 353.24 717.69 352.63 709.19
  L 464.29 645.95
  Q 464.85 645.85 465.23 646.25
  Q 478.71 660.12 497.05 664.71
  A 0.54 0.54 0.0 0 1 497.34 664.91
  L 497.51 665.16
  Z"
/>
<path fill="#361e49" d="
  M 558.84 645.91
  L 671.65 709.37
  Q 670.54 717.81 671.83 725.92
  L 545.45 796.96
  Q 537.95 788.86 526.48 785.23
  L 526.39 664.77
  Q 540.05 661.74 551.26 652.77
  Q 555.73 649.19 558.84 645.91
  Z"
/>
<path fill="#d5cfef" d="
  M 526.39 664.77
  L 526.48 785.23
  Q 512.07 781.33 497.36 785.13
  L 497.51 665.16
  Q 497.90 665.06 498.24 665.14
  Q 512.33 668.54 526.39 664.77
  Z"
/>
<path fill="#72deca" d="
  M 321.00 672.62
  Q 331.60 676.07 338.61 683.68
  Q 349.29 693.98 351.86 708.36
  Q 351.97 709.01 352.63 709.19
  Q 353.24 717.69 352.25 726.06
  Q 351.36 730.92 349.64 735.37
  Q 346.08 744.50 338.98 751.22
  Q 338.67 751.50 338.74 751.95
  Q 337.95 751.78 337.48 752.20
  C 318.39 768.99 290.50 767.84 272.39 750.62
  C 262.21 740.94 257.75 726.76 258.94 712.83
  C 260.38 696.06 270.67 682.11 285.81 674.77
  Q 287.00 674.19 291.60 672.69
  Q 305.99 668.59 319.94 672.48
  A 1.11 1.05 -43.4 0 0 320.55 672.48
  Q 321.13 672.30 321.00 672.62
  Z"
/>
<path fill="#72deca" d="
  M 732.29 672.53
  Q 751.65 678.59 760.84 696.67
  C 764.53 703.95 765.57 712.00 765.15 720.28
  C 764.09 741.61 748.19 759.40 727.21 763.20
  Q 704.79 767.25 686.58 752.40
  Q 685.95 751.89 685.22 752.05
  Q 685.23 751.12 685.01 750.91
  Q 676.82 742.96 673.28 732.10
  A 3.20 3.15 35.0 0 1 673.12 731.24
  Q 672.94 728.14 671.83 725.92
  Q 670.54 717.81 671.65 709.37
  Q 673.36 700.20 678.68 691.91
  Q 681.17 688.02 684.15 685.35
  A 1.87 1.78 81.7 0 0 684.61 684.70
  L 685.06 683.67
  Q 693.08 676.23 703.12 672.64
  Q 710.07 670.78 720.00 670.93
  Q 727.48 671.04 732.29 672.53
  Z"
/>
<path fill="#d5cfef" d="
  M 671.83 725.92
  Q 672.94 728.14 673.12 731.24
  A 3.20 3.15 35.0 0 0 673.28 732.10
  Q 676.82 742.96 685.01 750.91
  Q 685.23 751.12 685.22 752.05
  L 558.80 823.12
  L 557.51 816.60
  A 1.19 0.89 36.9 0 0 557.44 816.36
  Q 553.59 805.74 545.45 796.96
  L 671.83 725.92
  Z"
/>
<path fill="#d5cfef" d="
  M 352.25 726.06
  L 478.70 797.08
  Q 469.67 806.20 466.25 818.32
  Q 465.57 820.70 465.14 823.14
  L 338.74 751.95
  Q 338.67 751.50 338.98 751.22
  Q 346.08 744.50 349.64 735.37
  Q 351.36 730.92 352.25 726.06
  Z"
/>
<path fill="#72deca" d="
  M 526.48 785.23
  Q 537.95 788.86 545.45 796.96
  Q 553.59 805.74 557.44 816.36
  A 1.19 0.89 36.9 0 1 557.51 816.60
  L 558.80 823.12
  Q 559.85 832.49 557.71 841.36
  C 553.80 857.63 541.96 869.83 525.95 874.71
  C 502.62 881.81 478.16 870.66 468.42 848.56
  Q 463.30 836.94 465.14 823.14
  Q 465.57 820.70 466.25 818.32
  Q 469.67 806.20 478.70 797.08
  Q 483.09 791.64 489.86 788.35
  Q 493.88 786.39 497.36 785.13
  Q 512.07 781.33 526.48 785.23
  Z"
/>
<path fill="#efca75" d="
  M 603.28 963.75
  C 606.05 964.38 614.40 966.58 613.95 970.68
  C 613.60 973.76 607.98 974.40 605.54 974.57
  Q 587.65 975.80 569.71 975.91
  L 384.06 975.88
  Q 373.25 975.28 369.61 974.23
  C 365.69 973.09 360.33 969.85 364.31 965.15
  A 2.99 2.97 -71.0 0 1 366.44 964.10
  L 372.75 963.80
  L 603.28 963.75
  Z"
/>
<path fill="#d7ab5b" d="
  M 771.45 963.73
  L 779.76 964.06
  A 0.63 0.63 0.0 0 1 780.35 964.63
  L 781.21 973.84
  A 0.59 0.59 0.0 0 1 780.69 974.48
  L 768.54 975.90
  L 569.71 975.91
  Q 587.65 975.80 605.54 974.57
  C 607.98 974.40 613.60 973.76 613.95 970.68
  C 614.40 966.58 606.05 964.38 603.28 963.75
  L 771.45 963.73
  Z"
/>
<path fill="#d7ab5b" d="
  M 372.75 963.80
  L 366.44 964.10
  A 2.99 2.97 -71.0 0 0 364.31 965.15
  C 360.33 969.85 365.69 973.09 369.61 974.23
  Q 373.25 975.28 384.06 975.88
  L 258.53 975.81
  L 246.68 975.66
  A 1.97 1.96 59.2 0 1 245.74 975.42
  C 240.96 972.77 237.44 970.30 236.28 964.61
  A 0.43 0.42 83.0 0 1 236.67 964.10
  L 242.96 963.76
  L 372.75 963.80
  Z"
/>
</svg>
